<svg width="19" height="19" viewBox="0 0 19 19" fill="none" xmlns="http://www.w3.org/2000/svg">
<path d="M1.3 19C1.3 19 0 19 0 17.6667C0 16.3333 1.3 12.3333 6.5 12.3333C11.7 12.3333 13 16.3333 13 17.6667C13 19 11.7 19 11.7 19H1.3ZM6.5 11C7.53434 11 8.52633 10.5786 9.25772 9.82843C9.98911 9.07828 10.4 8.06087 10.4 7C10.4 5.93913 9.98911 4.92172 9.25772 4.17157C8.52633 3.42143 7.53434 3 6.5 3C5.46566 3 4.47367 3.42143 3.74228 4.17157C3.01089 4.92172 2.6 5.93913 2.6 7C2.6 8.06087 3.01089 9.07828 3.74228 9.82843C4.47367 10.5786 5.46566 11 6.5 11Z" fill="#1D2939"/>
<path d="M13 3.5H18" stroke="#1D2939" stroke-width="1.5" stroke-linecap="round"/>
<path d="M15.5 1L15.5 6" stroke="#1D2939" stroke-width="1.5" stroke-linecap="round"/>
</svg>
