<svg width="24" height="24" viewBox="0 0 24 24" fill="none" xmlns="http://www.w3.org/2000/svg">
<path d="M21 12.0283L13.0048 20.2753C11.8949 21.3907 10.4038 22.0103 8.85428 21.9999C7.30477 21.9895 5.8216 21.3499 4.72591 20.2197C3.63022 19.0895 3.01021 17.5597 3.00012 15.9614C2.99004 14.3631 3.5907 12.825 4.67204 11.6802L12.9062 3.18674C13.6428 2.42688 14.6419 2 15.6837 2C16.7255 2 17.7246 2.42688 18.4613 3.18674C19.198 3.9466 19.6118 4.97719 19.6118 6.05179C19.6118 7.12639 19.198 8.15698 18.4613 8.91683L10.4647 17.1653C10.0963 17.5452 9.59677 17.7587 9.07588 17.7587C8.55498 17.7587 8.05542 17.5452 7.68709 17.1653C7.31876 16.7854 7.11184 16.2701 7.11184 15.7328C7.11184 15.1955 7.31876 14.6802 7.68709 14.3003L15.4449 6.29818" stroke="#1D2939" stroke-width="1.8" stroke-linecap="round"/>
</svg>
