<svg width="24" height="24" viewBox="0 0 24 24" fill="none" xmlns="http://www.w3.org/2000/svg">
<path d="M7.5 4.8C7.5 4.32261 7.68964 3.86477 8.02721 3.52721C8.36477 3.18964 8.82261 3 9.3 3H14.7C15.1774 3 15.6352 3.18964 15.9728 3.52721C16.3104 3.86477 16.5 4.32261 16.5 4.8V6.6H20.1C20.3387 6.6 20.5676 6.69482 20.7364 6.8636C20.9052 7.03239 21 7.2613 21 7.5C21 7.73869 20.9052 7.96761 20.7364 8.1364C20.5676 8.30518 20.3387 8.4 20.1 8.4H19.1379L18.3576 19.3278C18.3253 19.7819 18.1221 20.2069 17.7889 20.5172C17.4557 20.8275 17.0174 21 16.5621 21H7.437C6.98173 21 6.54336 20.8275 6.2102 20.5172C5.87703 20.2069 5.67382 19.7819 5.6415 19.3278L4.863 8.4H3.9C3.66131 8.4 3.43239 8.30518 3.2636 8.1364C3.09482 7.96761 3 7.73869 3 7.5C3 7.2613 3.09482 7.03239 3.2636 6.8636C3.43239 6.69482 3.66131 6.6 3.9 6.6H7.5V4.8ZM9.3 6.6H14.7V4.8H9.3V6.6ZM6.6666 8.4L7.4379 19.2H16.563L17.3343 8.4H6.6666Z" fill="currentColor"/>
<line x1="10.6" y1="11.6" x2="10.6" y2="15.4" stroke="currentColor" stroke-width="1.2" stroke-linecap="round"/>
<line x1="13.6" y1="11.6" x2="13.6" y2="15.4" stroke="currentColor" stroke-width="1.2" stroke-linecap="round"/>
</svg>
