<svg width="56" height="56" viewBox="0 0 56 56" fill="none" xmlns="http://www.w3.org/2000/svg">
<path d="M44.0028 12H12.9972C12.6094 12 12.2565 12.2242 12.0918 12.5754L8.66815 19.8754C8.35713 20.5385 8.84107 21.3 9.57352 21.3H47.4265C48.1589 21.3 48.6429 20.5385 48.3319 19.8754L44.9082 12.5754C44.7435 12.2242 44.3906 12 44.0028 12Z" stroke="#1D2939" stroke-width="2"/>
<path d="M44.0832 21.5H12.9168C12.5716 21.5 12.2507 21.6781 12.0681 21.9712L8.95262 26.9712C8.53758 27.6373 9.01652 28.5 9.80134 28.5H47.1987C47.9835 28.5 48.4624 27.6373 48.0474 26.9712L44.9319 21.9712C44.7493 21.6781 44.4284 21.5 44.0832 21.5Z" stroke="#1D2939" stroke-width="2"/>
<path d="M44.0832 28.5H12.9168C12.5716 28.5 12.2507 28.6781 12.0681 28.9712L8.95262 33.9712C8.53758 34.6373 9.01652 35.5 9.80134 35.5H47.1987C47.9835 35.5 48.4624 34.6373 48.0474 33.9712L44.9319 28.9712C44.7493 28.6781 44.4284 28.5 44.0832 28.5Z" stroke="#1D2939" stroke-width="2"/>
<path d="M44.0832 35.5H12.9168C12.5716 35.5 12.2507 35.6781 12.0681 35.9712L8.95262 40.9712C8.53758 41.6373 9.01652 42.5 9.80134 42.5H47.1987C47.9835 42.5 48.4624 41.6373 48.0474 40.9712L44.9319 35.9712C44.7493 35.6781 44.4284 35.5 44.0832 35.5Z" stroke="#1D2939" stroke-width="2"/>
<path d="M23 16.6504H35" stroke="#1D2939" stroke-width="2" stroke-linecap="round"/>
</svg>
