<svg width="200" height="200" viewBox="0 0 200 200" fill="none" xmlns="http://www.w3.org/2000/svg">
<g id="icon/excel">
<path id="Vector" d="M122.38 95.9375L53.1992 83.75V173.806C53.2 174.785 53.3935 175.753 53.7687 176.657C54.1439 177.56 54.6933 178.381 55.3857 179.072C56.0781 179.764 56.8998 180.312 57.804 180.685C58.7082 181.059 59.6771 181.251 60.6555 181.25H180.03C181.01 181.252 181.98 181.062 182.886 180.689C183.791 180.316 184.615 179.768 185.308 179.077C186.002 178.385 186.553 177.564 186.929 176.66C187.304 175.755 187.498 174.786 187.499 173.806V140.625L122.38 95.9375Z" fill="#185C37"/>
<path id="Vector_2" d="M122.38 18.75H60.6555C59.6771 18.7492 58.7082 18.9411 57.804 19.3147C56.8998 19.6883 56.0781 20.2364 55.3857 20.9276C54.6933 21.6189 54.1439 22.4397 53.7687 23.3432C53.3935 24.2468 53.2 25.2154 53.1992 26.1938V59.375L122.38 100L159.012 112.188L187.499 100V59.375L122.38 18.75Z" fill="#21A366"/>
<path id="Vector_3" d="M53.1992 59.375H122.38V100H53.1992V59.375Z" fill="#107C41"/>
<path id="Vector_4" opacity="0.1" d="M102.712 51.25H53.1992V152.812H102.712C104.685 152.803 106.574 152.016 107.971 150.623C109.368 149.229 110.159 147.342 110.174 145.369V58.6937C110.159 56.7209 109.368 54.8333 107.971 53.4399C106.574 52.0466 104.685 51.2598 102.712 51.25Z" fill="black"/>
<path id="Vector_5" opacity="0.2" d="M98.643 55.3125H53.1992V156.875H98.643C100.616 156.865 102.505 156.078 103.902 154.685C105.299 153.292 106.091 151.404 106.105 149.431V62.7562C106.091 60.7834 105.299 58.8958 103.902 57.5024C102.505 56.1091 100.616 55.3223 98.643 55.3125Z" fill="black"/>
<path id="Vector_6" opacity="0.2" d="M98.643 55.3125H53.1992V148.75H98.643C100.616 148.74 102.505 147.953 103.902 146.56C105.299 145.167 106.091 143.279 106.105 141.306V62.7562C106.091 60.7834 105.299 58.8958 103.902 57.5024C102.505 56.1091 100.616 55.3223 98.643 55.3125Z" fill="black"/>
<path id="Vector_7" opacity="0.2" d="M94.5742 55.3125H53.1992V148.75H94.5742C96.5471 148.74 98.4367 147.953 99.8335 146.56C101.23 145.167 102.022 143.279 102.037 141.306V62.7562C102.022 60.7834 101.23 58.8958 99.8335 57.5024C98.4367 56.1091 96.5471 55.3223 94.5742 55.3125Z" fill="black"/>
<path id="Vector_8" d="M19.9625 55.3125H94.575C96.5514 55.3109 98.4477 56.094 99.847 57.4898C101.246 58.8856 102.034 60.7798 102.037 62.7563V137.244C102.034 139.22 101.246 141.114 99.847 142.51C98.4477 143.906 96.5514 144.689 94.575 144.688H19.9625C18.9836 144.689 18.014 144.498 17.1091 144.125C16.2042 143.751 15.3817 143.203 14.6887 142.512C13.9956 141.821 13.4456 141 13.0701 140.096C12.6945 139.192 12.5008 138.223 12.5 137.244V62.7563C12.5008 61.7774 12.6945 60.8083 13.0701 59.9043C13.4456 59.0003 13.9956 58.1792 14.6887 57.4879C15.3817 56.7966 16.2042 56.2487 17.1091 55.8754C18.014 55.5021 18.9836 55.3109 19.9625 55.3125Z" fill="url(#paint0_linear_7280_4203)"/>
<path id="Vector_9" d="M35.625 124.206L51.3188 99.9313L36.9437 75.7938H48.4875L56.3312 91.25C57.0562 92.7125 57.5813 93.8 57.8188 94.525H57.925C58.4375 93.35 58.9812 92.2188 59.55 91.1125L67.9375 75.8188H78.5625L63.8188 99.8188L78.9375 124.225H67.6312L58.5688 107.281C58.148 106.553 57.7904 105.79 57.5 105H57.35C57.0857 105.769 56.7334 106.505 56.3 107.194L46.9687 124.206H35.625Z" fill="white"/>
<path id="Vector_10" d="M180.039 18.75H122.383V59.375H187.502V26.1938C187.501 25.2149 187.307 24.2458 186.931 23.3418C186.556 22.4378 186.006 21.6167 185.313 20.9254C184.62 20.2341 183.797 19.6862 182.892 19.3129C181.988 18.9396 181.018 18.7484 180.039 18.75Z" fill="#33C481"/>
<path id="Vector_11" d="M122.383 100H187.502V140.625H122.383V100Z" fill="#107C41"/>
</g>
<defs>
<linearGradient id="paint0_linear_7280_4203" x1="28.0875" y1="49.4625" x2="86.45" y2="150.538" gradientUnits="userSpaceOnUse">
<stop stop-color="#18884F"/>
<stop offset="0.5" stop-color="#117E43"/>
<stop offset="1" stop-color="#0B6631"/>
</linearGradient>
</defs>
</svg>
