<svg width="16" height="10" viewBox="0 0 16 10" fill="none" xmlns="http://www.w3.org/2000/svg">
<path fill-rule="evenodd" clip-rule="evenodd" d="M16 5C16 4.70083 15.823 4.505 15.4691 4.11167C14.1738 2.675 11.3168 0 8 0C4.68324 0 1.82623 2.675 0.530901 4.11167C0.176967 4.505 0 4.70083 0 5C0 5.29917 0.176967 5.495 0.530901 5.88833C1.82623 7.325 4.68324 10 8 10C11.3168 10 14.1738 7.325 15.4691 5.88833C15.823 5.495 16 5.29917 16 5ZM8 7.5C8.72579 7.5 9.42186 7.23661 9.93507 6.76777C10.4483 6.29893 10.7366 5.66304 10.7366 5C10.7366 4.33696 10.4483 3.70107 9.93507 3.23223C9.42186 2.76339 8.72579 2.5 8 2.5C7.27421 2.5 6.57814 2.76339 6.06493 3.23223C5.55172 3.70107 5.2634 4.33696 5.2634 5C5.2634 5.66304 5.55172 6.29893 6.06493 6.76777C6.57814 7.23661 7.27421 7.5 8 7.5Z" fill="#1D2939"/>
</svg>
