<svg width="32" height="32" viewBox="0 0 32 32" fill="none" xmlns="http://www.w3.org/2000/svg">
<path fill-rule="evenodd" clip-rule="evenodd" d="M11.2498 6.66667C11.2498 4.78579 12.7856 3.25 14.6665 3.25H17.9998C18.1987 3.25 18.3895 3.32902 18.5302 3.46967L25.8635 10.803C26.0042 10.9437 26.0832 11.1344 26.0832 11.3333V20C26.0832 21.8809 24.5474 23.4167 22.6665 23.4167H22.0832V25.3333C22.0832 27.2142 20.5474 28.75 18.6665 28.75H9.33317C7.45229 28.75 5.9165 27.2142 5.9165 25.3333V12C5.9165 10.1191 7.45229 8.58333 9.33317 8.58333H11.2498V6.66667ZM11.2498 10.0833H9.33317C8.28072 10.0833 7.4165 10.9475 7.4165 12V25.3333C7.4165 26.3858 8.28072 27.25 9.33317 27.25H18.6665C19.719 27.25 20.5832 26.3858 20.5832 25.3333V23.4167H14.6665C12.7856 23.4167 11.2498 21.8809 11.2498 20V10.0833ZM14.6665 4.75C13.6141 4.75 12.7498 5.61421 12.7498 6.66667V20C12.7498 21.0525 13.6141 21.9167 14.6665 21.9167H22.6665C23.719 21.9167 24.5832 21.0525 24.5832 20V12.0833H17.9998C17.5856 12.0833 17.2498 11.7475 17.2498 11.3333V4.75H14.6665ZM18.7498 5.81066L23.5225 10.5833H18.7498V5.81066Z" fill="#0B95D0"/>
</svg>
