<svg width="56" height="56" viewBox="0 0 56 56" fill="none" xmlns="http://www.w3.org/2000/svg">
<path d="M7 17.4444L22.2145 9.57847C22.9301 9.20847 23.7645 9.14186 24.5298 9.39364L49 17.4444M7 17.4444V27.2763C7 27.7081 7.27724 28.0912 7.68748 28.2262L31.4702 36.0508C32.2355 36.3026 33.0699 36.236 33.7855 35.866L48.4593 28.2796C48.7914 28.1078 49 27.7652 49 27.3913V17.4444M7 17.4444L31.4702 25.4952C32.2355 25.747 33.0699 25.6804 33.7855 25.3104L49 17.4444" stroke="#1D2939" stroke-width="2" stroke-linejoin="round"/>
<path d="M7 28V36.3844C7 37.68 7.83172 38.8292 9.06243 39.2341L31.4702 46.6064C32.2355 46.8581 33.0699 46.7915 33.7855 46.4215L47.3778 39.3943C48.3742 38.8791 49 37.8511 49 36.7293V28" stroke="#1D2939" stroke-width="2" stroke-linejoin="round"/>
<ellipse cx="28.5" cy="17.1435" rx="2.5" ry="1.80952" fill="#1D2939"/>
</svg>
