<svg width="32" height="32" viewBox="0 0 32 32" fill="none" xmlns="http://www.w3.org/2000/svg">
<path fill-rule="evenodd" clip-rule="evenodd" d="M15.4167 11.334C15.4167 9.53906 16.8717 8.08398 18.6667 8.08398C20.4616 8.08398 21.9167 9.53906 21.9167 11.334C21.9167 13.1289 20.4616 14.584 18.6667 14.584C16.8717 14.584 15.4167 13.1289 15.4167 11.334ZM18.6667 6.58398C16.0433 6.58398 13.9167 8.71063 13.9167 11.334C13.9167 13.9573 16.0433 16.084 18.6667 16.084C21.29 16.084 23.4167 13.9573 23.4167 11.334C23.4167 8.71063 21.29 6.58398 18.6667 6.58398ZM10.0833 24.6673C10.0833 23.6804 10.3056 22.9437 10.671 22.3801C11.0372 21.8154 11.5827 21.3698 12.3185 21.0247C13.8234 20.3189 16.0105 20.084 18.6667 20.084C21.3229 20.084 23.51 20.3189 25.0149 21.0247C25.7506 21.3698 26.2962 21.8154 26.6624 22.3801C27.0278 22.9437 27.25 23.6804 27.25 24.6673C27.25 25.0815 27.5858 25.4173 28 25.4173C28.4142 25.4173 28.75 25.0815 28.75 24.6673C28.75 23.4476 28.4722 22.4143 27.921 21.5641C27.3705 20.7151 26.5827 20.1032 25.6518 19.6666C23.8234 18.8091 21.3438 18.584 18.6667 18.584C15.9895 18.584 13.51 18.8091 11.6815 19.6666C10.7506 20.1032 9.96284 20.7151 9.41237 21.5641C8.86111 22.4143 8.58333 23.4476 8.58333 24.6673C8.58333 25.0815 8.91912 25.4173 9.33333 25.4173C9.74755 25.4173 10.0833 25.0815 10.0833 24.6673ZM7.34628 13.0676C7.52991 10.9976 9.36602 9.48079 11.4322 9.68074C11.8445 9.72064 12.1464 10.0872 12.1065 10.4995C12.0666 10.9118 11.7 11.2137 11.2877 11.1738C10.0473 11.0537 8.95012 11.9635 8.84041 13.2002C8.72948 14.4507 9.63524 15.5443 10.8663 15.6535L10.8732 15.6541L10.8732 15.6541C11.3765 15.7035 11.8599 15.5772 12.2878 15.3267C12.6453 15.1174 13.1047 15.2376 13.3139 15.595C13.5232 15.9525 13.403 16.4119 13.0456 16.6212C12.3811 17.0102 11.5857 17.2304 10.7303 17.1473C8.65648 16.9615 7.16398 15.1227 7.34628 13.0676ZM8.66667 17.9173C6.63935 17.9173 5.18523 18.3544 4.29132 19.4543C3.43152 20.5122 3.25 22.0054 3.25 23.6673C3.25 24.0815 3.58579 24.4173 4 24.4173C4.41421 24.4173 4.75 24.0815 4.75 23.6673C4.75 22.0226 4.95514 21.0158 5.45535 20.4004C5.92144 19.8269 6.80065 19.4173 8.66667 19.4173C9.08088 19.4173 9.41667 19.0815 9.41667 18.6673C9.41667 18.2531 9.08088 17.9173 8.66667 17.9173Z" fill="#0B95D0"/>
</svg>
