<svg width="24" height="24" viewBox="0 0 24 24" fill="none" xmlns="http://www.w3.org/2000/svg">
<circle cx="12" cy="12" r="9.1" stroke="#1D2939" stroke-width="1.8"/>
<path d="M10.76 13.1194C10.76 12.8209 10.8 12.554 10.88 12.3189C10.96 12.0837 11.0889 11.8621 11.2667 11.654C11.4533 11.446 11.6978 11.2334 12 11.0163C12.2667 10.8173 12.48 10.6409 12.64 10.4871C12.8089 10.3333 12.9289 10.1796 13 10.0258C13.08 9.872 13.12 9.70014 13.12 9.51018C13.12 9.22071 13.0133 9.00362 12.8 8.85889C12.5956 8.70511 12.3067 8.62822 11.9333 8.62822C11.56 8.62822 11.1911 8.68702 10.8267 8.80461C10.4622 8.92221 10.0889 9.08051 9.70667 9.27951L9 7.82768C9.43556 7.58345 9.90667 7.38444 10.4133 7.23067C10.92 7.07689 11.4756 7 12.08 7C13.0044 7 13.72 7.22614 14.2267 7.67843C14.7422 8.13071 15 8.70511 15 9.40163C15 9.7725 14.9422 10.0936 14.8267 10.365C14.7111 10.6364 14.5378 10.8896 14.3067 11.1248C14.0756 11.351 13.7867 11.5952 13.44 11.8575C13.1822 12.0475 12.9822 12.2103 12.84 12.346C12.6978 12.4817 12.6 12.6128 12.5467 12.7395C12.5022 12.8661 12.48 13.0244 12.48 13.2144V13.6079H10.76V13.1194ZM10.5467 15.8738C10.5467 15.4577 10.6578 15.1682 10.88 15.0054C11.1022 14.8336 11.3733 14.7476 11.6933 14.7476C12.0044 14.7476 12.2711 14.8336 12.4933 15.0054C12.7156 15.1682 12.8267 15.4577 12.8267 15.8738C12.8267 16.2718 12.7156 16.5613 12.4933 16.7422C12.2711 16.9141 12.0044 17 11.6933 17C11.3733 17 11.1022 16.9141 10.88 16.7422C10.6578 16.5613 10.5467 16.2718 10.5467 15.8738Z" fill="#1D2939"/>
</svg>
