<svg width="13" height="12" viewBox="0 0 13 12" fill="#1D2939" xmlns="http://www.w3.org/2000/svg">
<path d="M0.779167 11.6249C0.779167 11.6249 0 11.6249 0 10.7985C0 9.97214 0.779167 7.49298 3.89583 7.49298C7.0125 7.49298 7.79167 9.97214 7.79167 10.7985C7.79167 11.6249 7.0125 11.6249 7.0125 11.6249H0.779167ZM3.89583 6.66659C4.51578 6.66659 5.11033 6.40539 5.5487 5.94045C5.98706 5.47552 6.23334 4.84493 6.23334 4.18742C6.23334 3.5299 5.98706 2.89932 5.5487 2.43438C5.11033 1.96945 4.51578 1.70825 3.89583 1.70825C3.27589 1.70825 2.68134 1.96945 2.24297 2.43438C1.80461 2.89932 1.55833 3.5299 1.55833 4.18742C1.55833 4.84493 1.80461 5.47552 2.24297 5.94045C2.68134 6.40539 3.27589 6.66659 3.89583 6.66659Z" fill="#1D2939"/>
<path d="M7.79102 2.77075H11.3327" stroke="#1D2939" stroke-width="1.5" stroke-linecap="round"/>
<path d="M9.5625 1L9.5625 4.54167" stroke="#1D2939" stroke-width="1.5" stroke-linecap="round"/>
</svg>