<svg width="24" height="24" viewBox="0 0 24 24" fill="none" xmlns="http://www.w3.org/2000/svg">
<path d="M10.184 21.1768C10.68 21.1768 11.082 20.7698 11.082 20.2678C11.0828 20.1491 11.0602 20.0314 11.0155 19.9215C10.9708 19.8116 10.9048 19.7115 10.8214 19.6271C10.738 19.5427 10.6388 19.4755 10.5294 19.4295C10.42 19.3835 10.3027 19.3594 10.184 19.3588H6.592C5.6 19.3588 4.796 18.5448 4.796 17.5418V6.63576C4.796 5.63176 5.6 4.81776 6.592 4.81776H17.368C18.36 4.81776 19.165 5.63176 19.165 6.63576V10.2708C19.165 10.7728 19.567 11.1798 20.063 11.1798C20.559 11.1798 20.961 10.7728 20.961 10.2698V6.63576C20.961 4.62776 19.352 2.99976 17.368 2.99976H6.592C4.608 2.99976 3 4.62776 3 6.63576V17.5418C3 19.5488 4.608 21.1768 6.592 21.1768H10.184Z" fill="currentColor"/>
<line x1="8.6" y1="8.58311" x2="15.4" y2="8.58311" stroke="currentColor" stroke-width="1.2" stroke-linecap="round" stroke-linejoin="bevel"/>
<path d="M14 16V20C14 20.5523 14.4477 21 15 21H19C19.5523 21 20 20.5523 20 20V16C20 15.4477 19.5523 15 19 15H15C14.4477 15 14 15.4477 14 16Z" stroke="currentColor" stroke-width="1.5"/>
<path d="M19 14.5C19 13.3954 18.1046 12.5 17 12.5C15.8954 12.5 15 13.3954 15 14.5" stroke="currentColor" stroke-width="1.5"/>
</svg>
