<svg width="24" height="24" viewBox="0 0 24 24" fill="none" xmlns="http://www.w3.org/2000/svg">
<path d="
M20.9874 5.13559
C21.002 5.11833 21.0173 5.10162 21.0332 5.08551
C21.0743 5.04372 21.0999 4.98407 21.1 4.91895
C21.1 4.91888 21.1 4.91882 21.1 4.91876
V3.12875
C21.1 3.06354 21.0744 3.00381 21.0332 2.96197
C20.9925 2.9206 20.9403 2.9 20.8889 2.9H3.11111
C3.05974 2.9 3.00755 2.9206 2.96682 2.96197
C2.92563 3.00382 2.9 3.06355 2.9 3.12875
V4.91876
C2.9 4.91882 2.9 4.91888 2.9 4.91895
C2.90006 4.98407 2.92569 5.04371 2.96685 5.08551
C2.98271 5.10162 2.99796 5.11833 3.01257 5.13559
L9.12052 12.3533
C9.47908 12.7317 9.67767 13.2341 9.67778 13.7546
V13.7548
V20.3069
V13.7548M20.9874 5.13559
L14.3222 13.7548M14.3222 13.7548
V20.8713
V13.7548ZM12.9975 21.0799
C13.0196 21.0838 13.0415 21.0885 13.0633 21.094
C13.0925 21.1014 13.1228 21.102 13.1521 21.0956
C13.2208 21.0808 13.298 21.0715 13.3409 21.0664
C13.3965 21.0599 13.462 21.0531 13.5292 21.0462
C13.5653 21.0426 13.6025 21.0389 13.6405 21.0351
C13.7493 21.0242 13.8649 21.0127 13.9818 20.9998
C14.104 20.9863 14.2149 20.9726 14.306 20.9591
C14.3165 20.9316 14.3222 20.9019 14.3222 20.8716
L12.9975 21.0799ZM12.9975 21.0799
L9.82188 20.5237M12.9975 21.0799
L9.82188 20.5237M9.82188 20.5237
C9.78618 20.5107 9.7528 20.487 9.72675 20.4532
C9.69593 20.4131 9.67785 20.3617 9.67778 20.3072
L9.82188 20.5237
Z" stroke="#1D2939" stroke-width="1.8" stroke-linecap="round" stroke-linejoin="round"/>
</svg>
