<svg width="73" height="72" viewBox="0 0 73 72" fill="none" xmlns="http://www.w3.org/2000/svg">
<path d="M9.5 36H63.5M9.375 59.625H63.625C64.1773 59.625 64.625 59.1773 64.625 58.625V13.375C64.625 12.8227 64.1773 12.375 63.625 12.375H9.375C8.82272 12.375 8.375 12.8227 8.375 13.375V58.625C8.375 59.1773 8.82272 59.625 9.375 59.625Z" stroke="black" stroke-width="2" stroke-linecap="round" stroke-linejoin="round"/>
<path d="M9.5 36H63.5M9.375 59.625H63.625C64.1773 59.625 64.625 59.1773 64.625 58.625V13.375C64.625 12.8227 64.1773 12.375 63.625 12.375H9.375C8.82272 12.375 8.375 12.8227 8.375 13.375V58.625C8.375 59.1773 8.82272 59.625 9.375 59.625Z" stroke="#475467" stroke-width="2" stroke-linecap="round" stroke-linejoin="round"/>
<path d="M36.5 12V59.25" stroke="black" stroke-width="2"/>
<path d="M36.5 12V59.25" stroke="#475467" stroke-width="2"/>
</svg>
