<svg width="24" height="24" viewBox="0 0 24 24" fill="none" xmlns="http://www.w3.org/2000/svg">
<path fill-rule="evenodd" clip-rule="evenodd" d="M11.55 4.4C11.8166 4.2 12.1833 4.2 12.45 4.4L18.443 8.89478L18.456 8.90453L20.45 10.4C20.7814 10.6485 20.8485 11.1186 20.6 11.45C20.3515 11.7814 19.8814 11.8485 19.55 11.6L18.75 11V19C18.75 19.4142 18.4142 19.75 18 19.75H14H9.99998H5.99998C5.58577 19.75 5.24998 19.4142 5.24998 19V11L4.44998 11.6C4.11861 11.8485 3.64851 11.7814 3.39998 11.45C3.15145 11.1186 3.21861 10.6485 3.54998 10.4L5.54391 8.90455L5.55697 8.89476L11.55 4.4ZM10.75 18.25H13.25V12.75H10.75V18.25ZM14.75 18.25V12C14.75 11.5858 14.4142 11.25 14 11.25H9.99998C9.58577 11.25 9.24998 11.5858 9.24998 12V18.25H6.74998V9.875L12 5.9375L17.25 9.875V18.25H14.75Z" fill="currentColor"/>
</svg>
