<svg width="20" height="20" viewBox="0 0 20 20" fill="none" xmlns="http://www.w3.org/2000/svg">
<path d="M15.06 1.29492L18.5375 4.91992V18.7049H5.54688V18.7499H18.5819V4.96555L15.06 1.29492Z" fill="#909090"/>
<path d="M15.0222 1.25H5.50781V18.705H18.5428V4.92063L15.0222 1.25Z" fill="#F4F4F4"/>
<path d="M5.40781 2.1875H1.41406V6.45437H13.9766V2.1875H5.40781Z" fill="#7A7B7C"/>
<path d="M14.0481 6.38133H1.5V2.11133H14.0481V6.38133Z" fill="#DD2025"/>
<path d="M5.66063 2.83368H4.84375V5.83368H5.48625V4.82181L5.62813 4.82993C5.76598 4.82756 5.90254 4.80287 6.0325 4.75681C6.14644 4.71762 6.25126 4.65575 6.34063 4.57493C6.43156 4.49794 6.50326 4.40078 6.55 4.29118C6.61268 4.10899 6.63507 3.91537 6.61562 3.72368C6.61172 3.58675 6.58771 3.45113 6.54437 3.32118C6.50492 3.22737 6.44637 3.14281 6.37245 3.07287C6.29852 3.00292 6.21085 2.94914 6.115 2.91493C6.03213 2.88493 5.94651 2.86316 5.85937 2.84993C5.79339 2.83975 5.72676 2.83432 5.66 2.83368M5.54188 4.26743H5.48625V3.34243H5.60687C5.66011 3.33859 5.71353 3.34677 5.76319 3.36635C5.81284 3.38593 5.85746 3.41641 5.89375 3.45556C5.96895 3.55619 6.00912 3.67868 6.00812 3.80431C6.00812 3.95806 6.00812 4.09743 5.86937 4.19556C5.76942 4.25053 5.65564 4.27591 5.54188 4.26743ZM7.83625 2.82556C7.76687 2.82556 7.69937 2.83056 7.65187 2.83243L7.50312 2.83618H7.01562V5.83618H7.58937C7.80864 5.84219 8.02695 5.80503 8.23187 5.72681C8.39682 5.66138 8.54288 5.55592 8.65687 5.41993C8.76773 5.28272 8.84729 5.12296 8.89 4.95181C8.9391 4.75798 8.96305 4.55863 8.96125 4.35868C8.97337 4.12253 8.9551 3.8858 8.90687 3.65431C8.86111 3.48391 8.77541 3.32686 8.65687 3.19618C8.56387 3.09066 8.45002 3.00554 8.3225 2.94618C8.21299 2.89551 8.09779 2.85815 7.97937 2.83493C7.93229 2.82715 7.8846 2.8236 7.83687 2.82431M7.72312 5.28493H7.66062V3.36993H7.66875C7.7976 3.35511 7.92797 3.37836 8.04375 3.43681C8.12854 3.50451 8.19763 3.58981 8.24625 3.68681C8.29872 3.78889 8.32897 3.90094 8.335 4.01556C8.34063 4.15306 8.335 4.26556 8.335 4.35868C8.33754 4.46596 8.33064 4.57324 8.31437 4.67931C8.29511 4.7882 8.2595 4.89356 8.20875 4.99181C8.15131 5.08315 8.0737 5.16012 7.98187 5.21681C7.90476 5.26668 7.81345 5.28995 7.72187 5.28306M10.8969 2.83618H9.37812V5.83618H10.0206V4.64618H10.8331V4.08868H10.0206V3.39368H10.8956V2.83618" fill="#464648"/>
<path d="M13.6144 12.6594C13.6144 12.6594 15.6069 12.2982 15.6069 12.9788C15.6069 13.6594 14.3725 13.3826 13.6144 12.6594ZM12.1413 12.7113C11.8247 12.7813 11.5162 12.8837 11.2206 13.0169L11.4706 12.4544C11.7206 11.8919 11.98 11.1251 11.98 11.1251C12.2783 11.6272 12.6254 12.0986 13.0163 12.5326C12.7215 12.5765 12.4294 12.6366 12.1413 12.7126V12.7113ZM11.3525 8.64882C11.3525 8.05569 11.5444 7.89382 11.6938 7.89382C11.8431 7.89382 12.0113 7.96569 12.0169 8.48069C11.9682 8.99854 11.8598 9.50902 11.6938 10.0019C11.4663 9.58809 11.3487 9.12291 11.3519 8.65069L11.3525 8.64882ZM8.4469 15.2213C7.83565 14.8557 9.72877 13.7301 10.0719 13.6938C10.07 13.6944 9.0869 15.6038 8.4469 15.2213ZM16.1888 13.0594C16.1825 12.9969 16.1263 12.3051 14.895 12.3344C14.3818 12.3262 13.8689 12.3623 13.3619 12.4426C12.8708 11.9478 12.4479 11.3898 12.1044 10.7832C12.3208 10.1578 12.4518 9.50611 12.4938 8.84569C12.4756 8.09569 12.2963 7.66569 11.7213 7.67194C11.1463 7.67819 11.0625 8.18132 11.1381 8.93007C11.2122 9.43322 11.352 9.92449 11.5538 10.3913C11.5538 10.3913 11.2881 11.2182 10.9369 12.0407C10.5856 12.8632 10.3456 13.2944 10.3456 13.2944C9.73485 13.4933 9.15986 13.7887 8.64252 14.1694C8.12752 14.6488 7.91815 15.0169 8.1894 15.3851C8.42315 15.7026 9.24127 15.7744 9.97252 14.8163C10.3611 14.3214 10.716 13.8011 11.035 13.2588C11.035 13.2588 12.15 12.9532 12.4969 12.8694C12.8438 12.7857 13.2631 12.7194 13.2631 12.7194C13.2631 12.7194 14.2813 13.7438 15.2631 13.7076C16.245 13.6713 16.1975 13.1207 16.1913 13.0607" fill="#DD2025"/>
<path d="M14.9688 1.29883V4.96945H18.4894L14.9688 1.29883Z" fill="#909090"/>
<path d="M15.0156 1.25V4.92063H18.5362L15.0156 1.25Z" fill="#F4F4F4"/>
<path d="M5.60594 2.78485H4.78906V5.78485H5.43406V4.7736L5.57656 4.78173C5.71442 4.77936 5.85098 4.75466 5.98094 4.7086C6.09487 4.6694 6.19968 4.60753 6.28906 4.52673C6.37932 4.44954 6.45036 4.35239 6.49656 4.24298C6.55925 4.06079 6.58164 3.86717 6.56219 3.67548C6.55828 3.53855 6.53428 3.40293 6.49094 3.27298C6.45148 3.17917 6.39293 3.0946 6.31901 3.02466C6.24508 2.95472 6.15741 2.90093 6.06156 2.86673C5.97831 2.83644 5.89227 2.81445 5.80469 2.8011C5.7387 2.79092 5.67207 2.78549 5.60531 2.78485M5.48719 4.2186H5.43156V3.2936H5.55281C5.60605 3.28977 5.65947 3.29794 5.70912 3.31752C5.75878 3.3371 5.8034 3.36759 5.83969 3.40673C5.91489 3.50736 5.95506 3.62986 5.95406 3.75548C5.95406 3.90923 5.95406 4.0486 5.81531 4.14673C5.71535 4.20171 5.60158 4.22646 5.48781 4.21798M7.78156 2.77673C7.71219 2.77673 7.64469 2.78173 7.59719 2.7836L7.45031 2.78735H6.96281V5.78735H7.53656C7.75583 5.79336 7.97414 5.7562 8.17906 5.67798C8.34401 5.61256 8.49007 5.50709 8.60406 5.3711C8.71491 5.23389 8.79447 5.07413 8.83719 4.90298C8.88629 4.70915 8.91024 4.5098 8.90844 4.30985C8.92056 4.0737 8.90229 3.83697 8.85406 3.60548C8.8083 3.43508 8.7226 3.27804 8.60406 3.14735C8.51106 3.04183 8.39721 2.95671 8.26969 2.89735C8.16017 2.84668 8.04498 2.80933 7.92656 2.7861C7.87947 2.77833 7.83178 2.77477 7.78406 2.77548M7.67031 5.2361H7.60781V3.3211H7.61594C7.74479 3.30628 7.87516 3.32953 7.99094 3.38798C8.07573 3.45568 8.14482 3.54098 8.19344 3.63798C8.24591 3.74006 8.27616 3.85211 8.28219 3.96673C8.28781 4.10423 8.28219 4.21673 8.28219 4.30985C8.28473 4.41713 8.27783 4.52442 8.26156 4.63048C8.2423 4.73937 8.20669 4.84473 8.15594 4.94298C8.09849 5.03433 8.02088 5.1113 7.92906 5.16798C7.85195 5.21785 7.76064 5.24112 7.66906 5.23423M10.8422 2.78735H9.32344V5.78735H9.96594V4.59735H10.7784V4.03985H9.96594V3.34485H10.8409V2.78735" fill="white"/>
</svg>
