<svg version="1.1" id="Layer_1" xmlns="http://www.w3.org/2000/svg" xmlns:xlink="http://www.w3.org/1999/xlink" x="0px" y="0px"
	 width="100%" viewBox="0 0 256 240" enable-background="new 0 0 256 240" xml:space="preserve">
<path fill="#1D2939" opacity="1.000000" stroke="none" 
	d="
M186.107483,195.941650 
	C188.088135,199.057785 189.957306,201.820511 191.645187,204.689865 
	C194.298248,209.200073 193.553467,213.706390 189.876556,216.221924 
	C186.099182,218.806198 180.999161,217.783188 178.142120,213.476807 
	C171.421249,203.346512 164.796417,193.149414 158.331146,182.854736 
	C156.605698,180.107300 154.744324,178.847229 151.439804,179.328812 
	C120.741653,183.802612 94.458847,172.950073 70.238098,155.480423 
	C58.454502,146.981293 47.783031,137.195541 38.413631,126.016533 
	C36.002563,123.139816 35.541687,121.076447 38.239979,117.920189 
	C51.352592,102.582047 66.432167,89.643723 83.831680,79.422501 
	C89.306671,76.206276 89.383209,76.201988 86.010628,70.888229 
	C81.281425,63.437012 76.425766,56.066128 71.682358,48.623814 
	C68.319443,43.347469 68.790215,38.386692 72.784065,35.807953 
	C77.045578,33.056385 81.964546,34.637871 85.369385,39.910343 
	C118.888855,91.816093 152.400711,143.726776 186.107483,195.941650 
M65.615852,113.114105 
	C65.497871,113.231430 65.381454,113.350365 65.261696,113.465843 
	C56.426147,121.985222 56.271179,122.155968 65.253571,130.305389 
	C82.481400,145.935608 101.489639,158.498932 124.815697,163.062698 
	C131.440277,164.358795 138.128311,164.238007 145.129791,163.740067 
	C141.390030,154.640137 140.168991,153.613358 131.975174,152.095139 
	C115.503044,149.043045 103.778053,132.963943 107.791077,116.659805 
	C109.740753,108.738647 107.634010,103.319481 103.314499,97.642746 
	C102.510414,96.586014 101.662041,95.505646 101.138176,94.303658 
	C99.492523,90.527763 97.376770,90.132851 93.811340,92.269684 
	C83.928947,98.192421 74.613533,104.829887 65.615852,113.114105 
z"/>
<path fill="#1D2939" opacity="1.000000" stroke="none" 
	d="
M171.164520,69.668335 
	C197.956863,80.054771 219.276947,97.206665 237.540298,118.538406 
	C239.688660,121.047722 239.706848,122.787605 237.515244,125.364555 
	C223.788803,141.504517 207.880890,154.969040 189.561005,165.642578 
	C186.292084,167.547134 184.282043,167.668716 182.481323,163.970383 
	C181.104614,161.142899 179.179504,158.584503 177.546509,155.877350 
	C177.312881,155.490036 177.350815,154.938873 177.171814,153.969269 
	C192.447540,145.552765 206.365433,135.156525 218.636490,121.746735 
	C211.313583,113.810959 203.283875,106.908821 194.637543,100.755989 
	C177.667496,88.679893 159.346329,79.942329 138.029816,79.438438 
	C127.077606,79.179527 124.215370,77.232224 119.979935,65.352692 
	C137.485794,61.669125 154.284058,63.419292 171.164520,69.668335 
z"/>
<path fill="#1D2939" opacity="1.000000" stroke="none" 
	d="
M138.502579,91.383453 
	C151.957047,91.935951 161.210205,98.323112 166.168564,110.345688 
	C169.566528,118.584747 169.541016,126.947609 164.603027,136.047363 
	C161.103180,130.638565 158.163879,126.081924 155.210312,121.534561 
	C149.783752,113.179741 144.283844,104.871178 138.983368,96.437218 
	C138.132294,95.083015 135.609100,93.578758 138.502579,91.383453 
z"/>
</svg>