<svg width="32" height="32" viewBox="0 0 32 32" fill="none" xmlns="http://www.w3.org/2000/svg">
<path fill-rule="evenodd" clip-rule="evenodd" d="M12.7498 11.334C12.7498 9.53906 14.2049 8.08398 15.9998 8.08398C17.7948 8.08398 19.2498 9.53906 19.2498 11.334C19.2498 13.1289 17.7948 14.584 15.9998 14.584C14.2049 14.584 12.7498 13.1289 12.7498 11.334ZM15.9998 6.58398C13.3765 6.58398 11.2498 8.71063 11.2498 11.334C11.2498 13.9573 13.3765 16.084 15.9998 16.084C18.6232 16.084 20.7498 13.9573 20.7498 11.334C20.7498 8.71063 18.6232 6.58398 15.9998 6.58398ZM7.4165 24.6673C7.4165 23.6804 7.63872 22.9437 8.00413 22.3801C8.37033 21.8154 8.91587 21.3698 9.65163 21.0247C11.1565 20.3189 13.3436 20.084 15.9998 20.084C18.656 20.084 20.8431 20.3189 22.348 21.0247C23.0838 21.3698 23.6293 21.8154 23.9955 22.3801C24.361 22.9437 24.5832 23.6804 24.5832 24.6673C24.5832 25.0815 24.919 25.4173 25.3332 25.4173C25.7474 25.4173 26.0832 25.0815 26.0832 24.6673C26.0832 23.4476 25.8054 22.4143 25.2541 21.5641C24.7037 20.7151 23.9159 20.1032 22.985 19.6666C21.1565 18.8091 18.677 18.584 15.9998 18.584C13.3227 18.584 10.8431 18.8091 9.01471 19.6666C8.0838 20.1032 7.29601 20.7151 6.74554 21.5641C6.19428 22.4143 5.9165 23.4476 5.9165 24.6673C5.9165 25.0815 6.25229 25.4173 6.6665 25.4173C7.08072 25.4173 7.4165 25.0815 7.4165 24.6673Z" fill="#0B95D0"/>
</svg>
