<svg version="1.1" id="Layer_1" xmlns="http://www.w3.org/2000/svg" xmlns:xlink="http://www.w3.org/1999/xlink" x="0px" y="0px"
	 width="100%" viewBox="0 0 288 240" enable-background="new 0 0 288 240" xml:space="preserve">
<path fill="#1D2939" opacity="1.000000" stroke="none" 
	d="
M74.352089,150.689041 
	C64.800697,142.820084 56.137993,134.565811 48.413422,125.325447 
	C46.479809,123.012405 46.108650,121.250069 48.185196,118.848770 
	C71.633354,91.733589 98.943970,70.603859 135.314011,64.471527 
	C156.413605,60.913929 176.381851,65.850586 195.161499,75.620392 
	C215.349594,86.122925 232.644852,100.284119 247.370514,117.641273 
	C249.770538,120.470177 250.458984,122.567673 247.709732,125.717461 
	C226.368149,150.168015 201.636414,169.508347 169.582977,177.787323 
	C148.208649,183.308044 127.637352,180.060776 107.698647,171.340729 
	C95.712563,166.098709 84.920624,158.909454 74.352089,150.689041 
M95.397652,97.936592 
	C85.250648,104.872368 75.861046,112.668282 67.152458,121.919678 
	C83.058784,138.150711 100.161507,151.312683 121.019890,159.165619 
	C134.963196,164.415131 149.276321,165.788315 163.730057,162.573532 
	C189.020309,156.948456 208.909454,142.067352 227.023102,124.373558 
	C229.573959,121.881828 227.806320,120.377472 226.085587,118.638161 
	C214.998032,107.430969 202.670776,97.835991 188.670532,90.567596 
	C172.857880,82.358261 156.264847,77.555588 138.169861,80.270386 
	C122.699051,82.591469 108.924423,89.019241 95.397652,97.936592 
z"/>
<path fill="#1D2939" opacity="1.000000" stroke="none" 
	d="
M168.281311,145.356842 
	C149.025558,159.104477 124.725258,151.709229 118.751205,130.609436 
	C114.629585,116.052269 121.204346,100.915413 134.485855,94.384048 
	C147.889404,87.792671 164.211029,91.687744 172.942352,103.561508 
	C181.934479,115.789955 180.855682,132.250854 170.328171,143.363434 
	C169.756775,143.966599 169.143997,144.530579 168.281311,145.356842 
M151.598053,107.728073 
	C150.116791,107.617088 148.622925,107.325249 147.156494,107.427284 
	C141.620697,107.812462 135.972733,112.114349 134.578079,117.309334 
	C133.011124,123.146202 133.887192,128.552750 138.674225,132.753922 
	C143.523758,137.009918 149.149826,137.660583 154.817917,134.586700 
	C159.863388,131.850479 162.875824,127.647629 162.712769,121.765717 
	C162.520187,114.818878 158.577209,110.487099 151.598053,107.728073 
z"/>
</svg>