<svg width="200" height="200" viewBox="0 0 56 56" fill="none" xmlns="http://www.w3.org/2000/svg">
<g id="size=56">
<path id="Vector" d="M50.409 5.25H16.9823C16.7083 5.24977 16.437 5.3035 16.1839 5.40812C15.9307 5.51274 15.7006 5.6662 15.5067 5.85974C15.3129 6.05328 15.159 6.28311 15.054 6.53611C14.9489 6.78911 14.8948 7.06032 14.8945 7.33425V16.625L34.2653 22.3125L52.4985 16.625V7.33425C52.4983 7.06017 52.4441 6.78882 52.3389 6.5357C52.2338 6.28259 52.0798 6.05268 51.8857 5.85912C51.6917 5.66556 51.4614 5.51213 51.208 5.40762C50.9546 5.3031 50.6831 5.24954 50.409 5.25Z" fill="#41A5EE"/>
<path id="Vector_2" d="M52.4985 16.625H14.8945V28L34.2653 31.4125L52.4985 28V16.625Z" fill="#2B7CD3"/>
<path id="Vector_3" d="M14.8945 28V39.375L33.126 41.65L52.4985 39.375V28H14.8945Z" fill="#185ABD"/>
<path id="Vector_4" d="M16.9823 50.75H50.4073C50.6815 50.7507 50.9532 50.6973 51.2068 50.5929C51.4603 50.4885 51.6908 50.3351 51.8851 50.1415C52.0793 49.9479 52.2335 49.7179 52.3387 49.4647C52.444 49.2115 52.4983 48.94 52.4985 48.6658V39.375H14.8945V48.6658C14.8948 48.9397 14.9489 49.2109 15.054 49.4639C15.159 49.7169 15.3129 49.9467 15.5067 50.1403C15.7006 50.3338 15.9307 50.4873 16.1839 50.5919C16.437 50.6965 16.7083 50.7502 16.9823 50.75Z" fill="#103F91"/>
<path id="Vector_5" opacity="0.1" d="M28.758 14.3516H14.8945V42.7891H28.758C29.3104 42.7863 29.8395 42.566 30.2306 42.1759C30.6218 41.7857 30.8434 41.2572 30.8475 40.7048V16.4358C30.8434 15.8834 30.6218 15.3549 30.2306 14.9647C29.8395 14.5746 29.3104 14.3543 28.758 14.3516Z" fill="black"/>
<path id="Vector_6" opacity="0.2" d="M27.6188 15.4883H14.8945V43.9258H27.6188C28.1712 43.923 28.7003 43.7027 29.0914 43.3126C29.4825 42.9225 29.7041 42.3939 29.7083 41.8415V17.5725C29.7041 17.0201 29.4825 16.4916 29.0914 16.1015C28.7003 15.7113 28.1712 15.491 27.6188 15.4883Z" fill="black"/>
<path id="Vector_7" opacity="0.2" d="M27.6188 15.4883H14.8945V41.6508H27.6188C28.1712 41.648 28.7003 41.4277 29.0914 41.0376C29.4825 40.6475 29.7041 40.1189 29.7083 39.5665V17.5725C29.7041 17.0201 29.4825 16.4916 29.0914 16.1015C28.7003 15.7113 28.1712 15.491 27.6188 15.4883Z" fill="black"/>
<path id="Vector_8" opacity="0.2" d="M26.4795 15.4883H14.8945V41.6508H26.4795C27.0319 41.648 27.561 41.4277 27.9521 41.0376C28.3433 40.6475 28.5649 40.1189 28.569 39.5665V17.5725C28.5649 17.0201 28.3433 16.4916 27.9521 16.1015C27.561 15.7113 27.0319 15.491 26.4795 15.4883Z" fill="black"/>
<path id="Vector_9" d="M5.5895 15.4883H26.481C27.0344 15.4878 27.5653 15.7071 27.9572 16.0979C28.349 16.4887 28.5696 17.0191 28.5705 17.5725V38.429C28.5696 38.9824 28.349 39.5128 27.9572 39.9037C27.5653 40.2945 27.0344 40.5137 26.481 40.5133H5.5895C5.31542 40.5137 5.04393 40.4602 4.79055 40.3557C4.53718 40.2512 4.30688 40.0977 4.11283 39.9042C3.91878 39.7106 3.76478 39.4807 3.65962 39.2276C3.55447 38.9745 3.50023 38.7031 3.5 38.429V17.5725C3.50023 17.2984 3.55447 17.0271 3.65962 16.774C3.76478 16.5209 3.91878 16.291 4.11283 16.0974C4.30688 15.9038 4.53718 15.7504 4.79055 15.6459C5.04393 15.5414 5.31542 15.4878 5.5895 15.4883Z" fill="url(#paint0_linear_7226_29721)"/>
<path id="Vector_10" d="M12.0745 31.4799C12.1148 31.8019 12.1428 32.0819 12.155 32.3217H12.204C12.2215 32.0942 12.26 31.8194 12.3178 31.4992C12.3755 31.1789 12.4263 30.9077 12.4735 30.6854L14.6698 21.2232H17.5118L19.7868 30.5437C19.9193 31.1202 20.014 31.7048 20.0703 32.2937H20.1088C20.1506 31.7204 20.2295 31.1505 20.345 30.5874L22.1633 21.2109H24.748L21.556 34.7699H18.5338L16.369 25.7994C16.306 25.5404 16.2349 25.2033 16.1555 24.7879C16.0762 24.3726 16.0272 24.0693 16.0085 23.8779H15.9718C15.9473 24.0984 15.8983 24.4257 15.8248 24.8597C15.7513 25.2954 15.6935 25.6157 15.6498 25.8257L13.6145 34.7752H10.5415L7.33203 21.2232H9.95703L11.9363 30.7047C11.9954 30.9606 12.0415 31.2194 12.0745 31.4799Z" fill="white"/>
</g>
<defs>
<linearGradient id="paint0_linear_7226_29721" x1="7.8645" y1="13.8503" x2="24.206" y2="42.1513" gradientUnits="userSpaceOnUse">
<stop stop-color="#2368C4"/>
<stop offset="0.5" stop-color="#1A5DBE"/>
<stop offset="1" stop-color="#1146AC"/>
</linearGradient>
</defs>
</svg>
